<?xml version="1.0" encoding="UTF-8"?>
<svg id="Calque_1" data-name="Calque 1" xmlns="http://www.w3.org/2000/svg" xmlns:xlink="http://www.w3.org/1999/xlink" viewBox="0 0 1000 1000">
  <defs>
    <style>
      .cls-1 {
        clip-path: url(#clippath);
      }

      .cls-2 {
        fill: none;
        stroke-width: 0px;
      }

      .cls-3 {
        clip-path: url(#clippath-1);
      }

      .cls-4 {
        fill: #303031;
        stroke: #b7b7b7;
        stroke-miterlimit: 10;
        stroke-width: 10px;
      }
    </style>
    <clipPath id="clippath">
      <path class="cls-2" d="M433.12,557.03v114.81c0,.75.21,1.49.61,2.13l12.21,19.74c1.67,2.7-.27,6.18-3.44,6.18h-104.27c-3.18,0-5.12-3.5-3.43-6.19l13.13-21.01c.4-.64.62-1.39.62-2.15v-315.55c0-.76-.21-1.5-.62-2.15l-13.13-21.01c-1.69-2.7.25-6.19,3.43-6.19h104.27c3.17,0,5.11,3.48,3.44,6.18l-12.21,19.74c-.4.64-.61,1.38-.61,2.13v108.6c0,2.24,1.81,4.05,4.05,4.05h126.6c2.24,0,4.05-1.81,4.05-4.05v-107.3c0-.76-.21-1.5-.62-2.15l-13.13-21.01c-1.69-2.7.25-6.19,3.43-6.19h104.27c3.17,0,5.11,3.48,3.44,6.18l-12.21,19.74c-.4.64-.61,1.38-.61,2.13v318.16c0,.75.21,1.49.61,2.13l12.21,19.74c1.67,2.7-.27,6.18-3.44,6.18h-104.27c-3.18,0-5.12-3.5-3.43-6.19l13.13-21.01c.4-.64.62-1.39.62-2.15v-113.51c0-2.24-1.81-4.05-4.05-4.05h-126.6c-2.24,0-4.05,1.81-4.05,4.05Z"/>
    </clipPath>
    <clipPath id="clippath-1">
      <path class="cls-2" d="M1216.5,488.31v114.81c0,.75.21,1.49.61,2.13l12.21,19.74c1.67,2.7-.27,6.18-3.44,6.18h-104.27c-3.18,0-5.12-3.5-3.43-6.19l13.13-21.01c.4-.64.62-1.39.62-2.15v-315.55c0-.76-.21-1.5-.62-2.15l-13.13-21.01c-1.69-2.7.25-6.19,3.43-6.19h104.27c3.17,0,5.11,3.48,3.44,6.18l-12.21,19.74c-.4.64-.61,1.38-.61,2.13v108.6c0,2.24,1.81,4.05,4.05,4.05h126.6c2.24,0,4.05-1.81,4.05-4.05v-107.3c0-.76-.21-1.5-.62-2.15l-13.13-21.01c-1.69-2.7.25-6.19,3.43-6.19h104.27c3.17,0,5.11,3.48,3.44,6.18l-12.21,19.74c-.4.64-.61,1.38-.61,2.13v318.16c0,.75.21,1.49.61,2.13l12.21,19.74c1.67,2.7-.27,6.18-3.44,6.18h-104.27c-3.18,0-5.12-3.5-3.43-6.19l13.13-21.01c.4-.64.62-1.39.62-2.15v-113.51c0-2.24-1.81-4.05-4.05-4.05h-126.6c-2.24,0-4.05,1.81-4.05,4.05Z"/>
    </clipPath>
  </defs>
  <g class="cls-1">
    <g>
      <polygon class="cls-4" points="410.42 401.03 474.52 488.68 430.66 588.01 322.71 599.69 258.61 512.04 302.47 412.71 410.42 401.03"/>
      <polygon class="cls-4" points="584.08 477.86 648.17 565.51 604.31 664.84 496.36 676.52 432.27 588.87 476.12 489.54 584.08 477.86"/>
      <polygon class="cls-4" points="563.66 289.21 627.75 376.86 583.9 476.19 475.94 487.87 411.85 400.23 455.71 300.9 563.66 289.21"/>
      <polygon class="cls-4" points="738.18 365.56 802.27 453.21 758.41 552.54 650.46 564.22 586.37 476.57 630.23 377.24 738.18 365.56"/>
      <polygon class="cls-4" points="717.72 176.56 781.82 264.21 737.96 363.54 630.01 375.22 565.92 287.58 609.77 188.25 717.72 176.56"/>
      <polygon class="cls-4" points="252.09 513.79 316.18 601.44 272.32 700.77 164.37 712.45 100.28 624.8 144.14 525.47 252.09 513.79"/>
      <polygon class="cls-4" points="759.1 558.86 823.19 646.51 779.33 745.84 671.38 757.52 607.29 669.88 651.15 570.55 759.1 558.86"/>
      <polygon class="cls-4" points="547.4 98.82 611.49 186.46 567.63 285.79 459.68 297.48 395.59 209.83 439.45 110.5 547.4 98.82"/>
      <polygon class="cls-4" points="233.87 320.14 297.96 407.79 254.1 507.12 146.15 518.8 82.06 431.15 125.92 331.82 233.87 320.14"/>
      <polygon class="cls-4" points="920.01 441.5 984.11 529.15 940.25 628.48 832.3 640.16 768.2 552.52 812.06 453.19 920.01 441.5"/>
      <polygon class="cls-4" points="452.76 792.19 516.85 879.84 472.99 979.17 365.04 990.85 300.95 903.21 344.8 803.88 452.76 792.19"/>
      <polygon class="cls-4" points="604.87 670.03 668.97 757.67 625.11 857 517.16 868.69 453.06 781.04 496.92 681.71 604.87 670.03"/>
      <polygon class="cls-4" points="431.32 594.08 495.41 681.73 451.55 781.06 343.6 792.74 279.51 705.09 323.36 605.76 431.32 594.08"/>
      <polygon class="cls-4" points="389.53 207.95 453.62 295.59 409.76 394.92 301.81 406.61 237.72 318.96 281.58 219.63 389.53 207.95"/>
    </g>
  </g>
  <g class="cls-3">
    <g>
      <polygon class="cls-4" points="1035.47 445.06 1099.56 532.71 1055.7 632.04 947.75 643.72 883.66 556.08 927.51 456.75 1035.47 445.06"/>
      <polygon class="cls-4" points="1017.25 251.42 1081.34 339.06 1037.48 438.39 929.53 450.08 865.44 362.43 909.29 263.1 1017.25 251.42"/>
    </g>
  </g>
</svg>